# xmcd CD database file generated by OrangeCD 5.2
#
# Track frame offsets:
#	196
#	13827
#	27998
#	45347
#	56814
#	72907
#	86515
#	100878
#	113157
#	130671
#	148380
#	167242
#
# Disc length: 2572 seconds
#
# Revision: 0
# Processed by: cddbd v1.5.1PL0 Copyright (c) Steve Scherf et al.
# Submitted via: OrangeCD 5.2
#
DISCID=a60a0a0c
DTITLE=Various Artist - Love Peace And Understanding
DYEAR=1995
DGENRE=R&B Compilation
TTITLE0=The O'Jays - Love Train
TTITLE1=The Pointer Sisters - Yes We Can Can
TTITLE2=Gladys Knight and The Pips - Friendship Train
TTITLE3=The Staple Singers - Love Is Plentiful
TTITLE4=Kool and The Gang - Love And Understanding (Come Together)
TTITLE5=Diana Ross - Reach Out And Touch
TTITLE6=Dionne Warwick - What The World Needs Now Is Love
TTITLE7=Nancy Wilson - Peace Of Mind
TTITLE8=Al Wilson - La La Peace Song
TTITLE9=Timmy Thomas - Why Can't We Live Together
TTITLE10=Maze   Featuring Frankie Beverly - We Are One
TTITLE11=Isley Jasper Isley - Caravan Of Love
EXTD=
EXTT0=
EXTT1=
EXTT2=
EXTT3=
EXTT4=
EXTT5=
EXTT6=
EXTT7=
EXTT8=
EXTT9=
EXTT10=
EXTT11=
PLAYORDER=
